<svg class="img-repost" width="75%" height="76%" viewBox="0 0 320 310" xmlns="http://www.w3.org/2000/svg"><g fill="none" fill-rule="evenodd"><path d="M204 299.434l-153.044-16.56V38.408L204 13.554v285.88z" fill="#010025"></path><path d="M179.21 308.62L10.49 292.74V23.262L179.21 7.38v301.24z" fill="#EA485D"></path><path d="M198.61 19.92v275.085l-19.4 5.506V14.415l19.4 5.507z" fill="#EBEBEB"></path><path d="M179 7.537l4.31 1.13v298.568l-4.31 1.228V7.537z" fill="#EA485D"></path><g transform="rotate(6 -124.593 442.544)"><g fill="#FFF"><path d="M1.504 122.28l20.62-4.17c8.077-1.634 12.373-6.79 12.373-14.847V59.46c0-8.06-4.296-11.562-12.372-9.93L1.505 53.7c-.947.192-1.376.794-1.376 1.65v65.836c0 .943.428 1.285 1.374 1.093zm10.31-59.348l7.905-1.6c2.233-.45 3.436.506 3.436 2.82v39.004c0 2.315-1.203 3.673-3.437 4.124l-7.906 1.6V62.93zm56.278-21.326V77.78l-.515.105-13.06-33.79c-.258-.72-.774-.958-1.547-.802l-8.506 1.72c-.86.174-1.375.792-1.375 1.65v65.835c0 .857.515 1.267 1.374 1.093l8.936-1.806c.945-.19 1.374-.792 1.374-1.65V73.79l.43-.087 13.146 33.946c.258.72.773.958 1.547.802l8.506-1.72c.86-.174 1.374-.793 1.374-1.65V39.243c0-.857-.515-1.267-1.374-1.093l-8.936 1.807c-.945.19-1.375.792-1.375 1.65zm20.277 6.872v20.23c0 1.63.773 2.502 2.32 2.703l20.363 2.57v11.4c0 2.315-1.203 3.673-3.437 4.124l-4.124.834c-2.148.435-3.437-.42-3.437-2.733v-6.6c0-.944-.43-1.286-1.375-1.095l-8.936 1.808c-.86.173-1.375.706-1.375 1.65v9c0 8.058 4.38 11.458 12.372 9.842l9.623-1.946c8.077-1.634 12.373-6.79 12.373-14.846V65.616c0-1.63-.774-2.416-2.234-2.72l-20.45-2.55v-11.83c0-2.23 1.29-3.69 3.438-4.125l4.124-.833c2.32-.47 3.437.505 3.437 2.734v6.687c0 .857.515 1.268 1.374 1.094l8.936-1.806c.945-.19 1.375-.793 1.375-1.65v-9.087c0-8.057-4.296-11.475-12.373-9.84l-9.623 1.945c-7.99 1.616-12.373 6.788-12.373 14.846zM8.375 26.535l2.83-.548v13.42l-2.83.548v-5.868L2.83 35.16v5.867L0 41.574v-13.42l2.83-.547v5.282l5.545-1.073v-5.282zm16.917-1.66c1.24.987 1.86 2.573 1.86 4.757 0 2.167-.615 3.98-1.845 5.443-1.23 1.46-2.875 2.39-4.934 2.79-2.084.402-3.74.114-4.97-.866-1.23-.98-1.846-2.54-1.846-4.675 0-1.367.213-2.555.64-3.566.32-.746.754-1.443 1.305-2.093.552-.65 1.156-1.17 1.812-1.56.873-.522 1.88-.893 3.02-1.114 2.066-.4 3.72-.105 4.958.882zm-2.122 2.02c-.704-.62-1.64-.817-2.806-.59-1.166.224-2.107.79-2.82 1.693-.714.904-1.07 2.128-1.07 3.672 0 1.52.365 2.6 1.098 3.243.733.643 1.664.855 2.792.637 1.128-.218 2.054-.787 2.777-1.705.725-.918 1.086-2.155 1.086-3.71 0-1.54-.352-2.618-1.056-3.24zm15.77-6.27l2.457 8.9 2.15-9.79 2.85-.552-3.403 14.078-3.002.582-2.792-9.494-2.782 10.572-3.07.593-3.345-12.774 2.897-.56 2.112 8.81 2.563-9.715 3.365-.65zM58.78 122.908l2.395 8.862 2.097-9.784 2.777-.57-3.32 14.072-2.926.6-2.72-9.452-2.714 10.57-2.992.613-3.262-12.722 2.824-.58 2.06 8.776 2.498-9.712 3.28-.674zm19.56-2.41c1.208.977 1.812 2.555 1.812 4.735 0 2.162-.6 3.977-1.8 5.444-1.198 1.467-2.8 2.407-4.808 2.82-2.032.416-3.648.14-4.847-.828-1.2-.97-1.8-2.52-1.8-4.65 0-1.365.21-2.553.625-3.564.31-.746.735-1.445 1.273-2.097.537-.654 1.126-1.176 1.766-1.57.852-.528 1.834-.906 2.946-1.134 2.014-.414 3.625-.133 4.833.843zm-2.07 2.034c-.687-.614-1.6-.805-2.736-.57-1.137.233-2.053.803-2.75 1.71-.695.907-1.043 2.13-1.043 3.672 0 1.516.358 2.592 1.073 3.228.714.636 1.62.84 2.72.615 1.1-.226 2.004-.8 2.71-1.72.704-.922 1.057-2.16 1.057-3.712 0-1.535-.343-2.61-1.03-3.223zm17.22-2.997c0 1.004-.3 1.896-.903 2.674s-1.504 1.376-2.703 1.792c.596.22 1.09.492 1.477.82.39.33.913.946 1.572 1.852l1.668 2.27-3.3.678-1.994-2.505c-.71-.896-1.193-1.452-1.454-1.67-.26-.217-.538-.346-.83-.387-.292-.04-.755.005-1.39.135l-.558.115v5.59l-2.76.567v-13.392l5.808-1.192c1.46-.3 2.52-.398 3.183-.293.662.105 1.192.424 1.59.957.397.533.596 1.196.596 1.988zm-3.21-.26c-.246-.226-.592-.33-1.04-.31-.223.015-.894.137-2.013.367l-2.153.442v3.398l2.04-.42c1.325-.27 2.15-.495 2.48-.673.33-.178.588-.42.774-.726.187-.306.28-.66.28-1.062 0-.45-.123-.79-.368-1.016zm17.892-6.51l-5.146 6.273 5.425 7.062-3.57.733-3.755-5.514-2.237 2.697v4.046l-2.76.567v-13.39l2.76-.568v5.947l5.574-7.093 3.71-.76zm9.358 7.58c0-.318-.095-.568-.284-.75-.19-.184-.52-.31-.993-.377-.323-.044-1.06-.087-2.21-.13-1.478-.057-2.516-.285-3.112-.687-.838-.563-1.258-1.375-1.258-2.435 0-.682.198-1.36.592-2.035.395-.675.963-1.244 1.706-1.707.743-.463 1.64-.802 2.69-1.018 1.714-.352 3.005-.25 3.872.31s1.322 1.45 1.366 2.67l-2.76.685c-.118-.663-.37-1.106-.76-1.328-.388-.222-.97-.253-1.747-.093-.8.163-1.428.454-1.882.87-.292.267-.438.574-.438.92 0 .317.137.56.41.73.348.214 1.193.34 2.536.374 1.342.035 2.335.152 2.978.352.643.2 1.146.55 1.51 1.05.363.502.545 1.176.545 2.022 0 .768-.218 1.53-.653 2.29-.435.76-1.05 1.383-1.846 1.872-.794.49-1.786.856-2.972 1.1-1.728.355-3.055.236-3.98-.357-.926-.592-1.48-1.62-1.66-3.08l2.685-.807c.16.85.49 1.43.983 1.744.494.312 1.16.383 2 .21.888-.182 1.558-.504 2.008-.965.45-.46.676-.938.676-1.43z"></path></g><g transform="rotate(10 26.196 330.123)" stroke="#FFF" stroke-width="2.76"><ellipse fill="#EA485D" cx="23.199" cy="13.716" rx="13.646" ry="13.716"></ellipse><path d="M33.914 6.858s11.12 1.76 11.12 5.548c0 3.787-10.082 6.857-22.518 6.857C10.08 19.263 0 16.193 0 12.406c0-3.788 12.28-5.548 12.28-5.548"></path></g><path d="M5.284 132.315L2.37 131.8c-1.058-.186-2.078.525-2.266 1.59-.19 1.074.522 2.083 1.586 2.27l2.914.514-.514 2.914c-.187 1.058.524 2.078 1.59 2.266 1.073.19 2.082-.522 2.27-1.585l.513-2.915 2.914.513c1.058.187 2.078-.524 2.266-1.59.19-1.073-.522-2.08-1.585-2.27l-2.914-.513.513-2.914c.187-1.057-.524-2.077-1.59-2.265-1.073-.19-2.08.522-2.27 1.586l-.513 2.915z" fill="#00CFEA"></path><ellipse fill="#FFEB98" cx="23.199" cy="126.87" rx="2.578" ry="2.572"></ellipse><ellipse fill="#FF9138" cx="33.509" cy="138.871" rx="4.296" ry="4.286"></ellipse></g><g transform="translate(26.167 191.854)"><path fill="#FFF" d="M42.388 0h17.3v17.276h-17.3z"></path><ellipse fill="#FF9138" cx="4.325" cy="59.602" rx="4.325" ry="4.319"></ellipse><path fill="#00CFEA" d="M64.88 82.06l5.19 10.367H59.69"></path><path fill="#FFEB98" d="M122.838 29.37h8.65v8.637h-8.65z"></path><path d="M54.93 29.8l7.787 43.19M72.232 15.98l42.388 12.957M34.17 22.89L13.408 49.67" stroke="#FFEB98" stroke-width=".862" stroke-linecap="square"></path></g><g transform="translate(186 129)"><path d="M1.01 17.585l54.92-13.43s49.194-16.54 41.628 19.665C92.713 47.004 36.658 47.9.078 45.982l.933-28.397z" fill="#FFEB98"></path><path d="M67.863 22.1s2.603 8.23 11.337 7.62c8.735-.612 9.16-10.77 9.16-10.77" stroke="#010025" stroke-width="2" stroke-linecap="round"></path><circle fill="#010025" cx="64" cy="18" r="2"></circle><circle fill="#010025" cx="89" cy="12" r="2"></circle></g><g transform="translate(191 7)"><path d="M.973 100.167v22.09c14.978 1.027 31.094-1.47 44.996-11.726C84.905 81.81 117.647 0 69.122 0S40.89 50.535 24.795 80.652C18.52 92.394 14.063 96.472.973 100.167z" fill="#00CFEA"></path><circle fill="#010025" cx="49.5" cy="25.5" r="3.5"></circle><circle fill="#010025" cx="83.5" cy="25.5" r="3.5"></circle><path d="M53.408 32.802H80.2s-.145 11.97-11.97 11.97C56.408 44.77 53.41 32.8 53.41 32.8z" fill="#EA485D"></path></g><path d="M287.01 12.014s4.77-8.604 6.48-9.89c1.708-1.29 4.17-.902 5.5.862 1.33 1.765 1.022 4.238-.686 5.526-1.708 1.287-11.294 3.502-11.294 3.502z" fill="#FFEB98"></path><path d="M288.203 14.33s9.836.174 11.775 1.078c1.938.904 2.753 3.26 1.82 5.262-.934 2.002-3.263 2.892-5.2 1.988-1.94-.904-8.395-8.328-8.395-8.328zM275.515 124.615s3.845-9.055 5.41-10.514c1.564-1.458 4.054-1.33 5.56.285 1.507 1.616 1.46 4.108-.104 5.567-1.564 1.46-10.865 4.663-10.865 4.663z" fill="#FF9138"></path><path d="M278.064 127.035s8.766-4.465 10.902-4.577c2.136-.112 3.962 1.585 4.077 3.792.116 2.206-1.522 4.085-3.658 4.197-2.136.112-11.32-3.412-11.32-3.412z" fill="#00CFEA"></path><path d="M316.804 240.824L274 294.628V187.02l42.804 53.804zm-125.804-33h83v66h-83v-66z" fill="#FF9138"></path><g transform="rotate(5 -3074.268 1429.61)" fill="#FFF"><path d="M6.122 0c-.417 0-.756.34-.756.78L5.362 6.4c-.55-.392-1.21-.622-1.923-.623C1.54 5.775 0 7.407 0 9.42s1.54 3.644 3.44 3.644 3.437-1.632 3.438-3.644V.78c0-.44-.34-.78-.756-.78zm-1.32 10.864c-.352.37-.828.597-1.363.597-.536 0-1.012-.225-1.364-.596-.35-.372-.563-.877-.564-1.444 0-.567.215-1.072.564-1.444.352-.37.83-.598 1.363-.598.534 0 1.01.228 1.36.598.35.372.566.877.566 1.444s-.214 1.072-.565 1.444zM48.296.816c0-.443.34-.8.756-.8.417 0 .755.357.755.8v11.38c0 .443-.338.802-.755.802s-.756-.36-.756-.802V.816zM24.148 6.51c0-.444.338-.803.755-.803.418 0 .756.36.756.802v5.686c0 .443-.34.802-.757.802-.418 0-.755-.36-.755-.802V6.51z"></path><ellipse cx="24.903" cy="4.183" rx=".756" ry=".801"></ellipse><path d="M22.22 7.31h-.212c-.534 0-.8.228-1.15.598-.35.373-.565.878-.565 1.444 0 2.013-1.54 3.646-3.44 3.646-.416 0-.754-.36-.754-.802 0-.443.337-.8.754-.8.535-.002 1.012-.228 1.363-.598.35-.374.564-.878.565-1.446 0-2.012 1.54-3.643 3.438-3.644.418 0 .756.36.756.8 0 .443-.34.802-.756.802zM13.415 12.263c0 .443.338.802.756.802.42 0 .757-.36.757-.802v-2.91c0-2.013-1.54-3.644-3.44-3.645-1.9 0-3.437 1.632-3.437 3.644v2.91c0 .444.338.803.755.803.418 0 .757-.36.757-.802v-2.91c0-.567.214-1.072.564-1.445.35-.37.828-.597 1.362-.598.535 0 1.012.228 1.363.598.35.373.564.878.565 1.444v2.91zM32.197 9.285v2.91c0 .443.338.802.755.802.418 0 .757-.36.757-.8V9.284c0-.567.213-1.072.563-1.444.352-.37.828-.597 1.363-.598.534 0 1.012.228 1.362.6.35.372.564.876.565 1.443v2.91c0 .443.338.802.755.802.418 0 .757-.36.757-.8V9.284c0-2.014-1.54-3.644-3.44-3.645-1.09 0-2.052.524-2.682 1.365-.63-.832-1.597-1.365-2.683-1.365-1.9 0-3.438 1.63-3.44 3.645v2.91c0 .443.34.802.757.802.418 0 .757-.36.757-.8V9.284c0-.567.214-1.072.564-1.444.35-.37.828-.597 1.362-.598.535 0 1.013.228 1.363.6.35.37.563.876.564 1.443v2.91M57.1 11.396h-2.683s-.803-.007-1.363-.598c-.173-.185-.312-.403-.41-.644H57.1c.42 0 .756-.36.756-.8 0-2.014-1.54-3.645-3.438-3.646-1.9 0-3.44 1.632-3.44 3.645s1.54 3.645 3.44 3.645H57.1c.42 0 .757-.36.757-.802 0-.442-.338-.8-.757-.8zm-4.446-2.868c.096-.232.232-.44.4-.62.352-.37.83-.598 1.364-.6.534.002 1.01.23 1.363.6.176.186.315.406.412.65-1.304 0-3.548-.006-3.548-.006l.01-.024zM43.685 5.62c-1.9 0-3.438 1.63-3.44 3.645v8.64c0 .44.34.78.757.78.418 0 .756-.34.756-.78l.005-5.618c.55.393 1.21.622 1.922.622 1.9 0 3.438-1.632 3.438-3.645 0-2.014-1.538-3.644-3.438-3.645zm1.363 5.088c-.352.37-.83.598-1.363.6-.535-.002-1.012-.23-1.362-.6-.35-.373-.564-.877-.565-1.443 0-.567.214-1.073.565-1.445.35-.37.827-.598 1.362-.598.534 0 1.01.227 1.363.598.35.373.563.878.563 1.445 0 .565-.212 1.07-.562 1.443z"></path></g><path fill="#FFEB98" d="M309.81 241L280 204v74M242.5 252.8c0 4.7 2.5 7.2 7.2 7.2h5.6c4.7 0 7.2-2.5 7.2-7.2v-25.6c0-4.7-2.5-7.2-7.2-7.2h-5.6c-4.7 0-7.2 2.5-7.2 7.2v25.6zm8.65.75c-1.3 0-2-.65-2-2v-23.1c0-1.3.7-2 2-2h2.9c1.3 0 2 .7 2 2v23.1c0 1.35-.7 2-2 2h-2.9zM215.5 252.8c0 4.7 2.5 7.2 7.2 7.2h6.6c4.65 0 7.2-2.5 7.2-7.2v-13.9c0-.55-.3-.8-.8-.8h-8.4c-.55 0-.8.25-.8.8v5c0 .5.25.8.8.8h2.6v6.7c0 1.35-.7 2-2 2h-3.6c-1.3 0-2-.65-2-2v-22.8c0-1.3.65-2 2-2h3.6c1.3 0 2 .7 2 2v3.8c0 .5.25.8.8.8h5c.5 0 .8-.3.8-.8v-5.2c0-4.7-2.55-7.2-7.2-7.2h-6.6c-4.7 0-7.2 2.5-7.2 7.2v25.6z"></path><path fill="#010025" d="M11 23h4v270h-4z"></path></g></svg>